<?xml version="1.0"?>
<svg xmlns="http://www.w3.org/2000/svg" xmlns:xlink="http://www.w3.org/1999/xlink" xmlns:svgjs="http://svgjs.com/svgjs" version="1.1" width="512" height="512" x="0" y="0" viewBox="0 0 512 512" style="enable-background:new 0 0 512 512" xml:space="preserve" class=""><g><path xmlns="http://www.w3.org/2000/svg" d="m507.778 255.778-86.049-88.909c-2.825-2.92-6.715-4.568-10.778-4.568h-54.987v-64.716c0-8.284-6.716-15-15-15h-278.605c-8.284 0-15 6.716-15 15v45.014h-11.354c-8.284 0-15 6.716-15 15s6.716 15 15 15h11.354v30.014h-32.359c-8.284 0-15 6.716-15 15s6.716 15 15 15h32.359v137.757c0 8.284 6.716 15 15 15h31.929c2.908 9.68 8.181 18.55 15.529 25.898 11.702 11.703 27.261 18.147 43.81 18.147s32.107-6.444 43.81-18.147c7.436-7.436 12.574-16.31 15.432-25.733h143.245c2.858 9.423 7.996 18.297 15.432 25.733 11.702 11.703 27.261 18.147 43.81 18.147s32.107-6.444 43.81-18.147c7.436-7.436 12.574-16.31 15.432-25.733h22.402c8.284 0 15-6.716 15-15v-104.325c0-3.894-1.514-7.634-4.222-10.432zm-46.17-4.568h-106.065v-58.909h49.051zm-384.249-18.598h78.073c8.284 0 15-6.716 15-15s-6.716-15-15-15h-78.073v-30.014h89.076c8.284 0 15-6.716 15-15s-6.716-15-15-15h-89.076v-30.014h89.076 159.528l-.421 242.949h-111.138c-2.275-11.692-7.93-22.851-16.967-31.889-11.702-11.703-27.261-18.147-43.81-18.147s-32.107 6.444-43.81 18.147c-8.8 8.8-14.625 19.781-16.974 31.724h-15.484zm98.865 157.443c-6.036 6.036-14.062 9.36-22.597 9.36s-16.561-3.324-22.597-9.36-9.36-14.062-9.36-22.598c0-8.537 3.324-16.563 9.36-22.599s14.062-9.36 22.597-9.36 16.561 3.324 22.597 9.36c12.46 12.461 12.46 32.736 0 45.197zm261.727 0c-6.036 6.036-14.062 9.36-22.597 9.36s-16.561-3.324-22.597-9.36c-12.46-12.461-12.46-32.735 0-45.196 6.036-6.036 14.062-9.36 22.597-9.36s16.561 3.324 22.597 9.36 9.359 14.062 9.359 22.599c.001 8.535-3.323 16.561-9.359 22.597zm38.181-34.521c-2.275-11.692-7.93-22.851-16.968-31.889-11.702-11.703-27.261-18.147-43.81-18.147s-32.107 6.444-43.81 18.147c-7.968 7.969-13.291 17.589-16.002 27.767v-70.202h126.458v74.324z" fill="#ffffff" data-original="#000000" style="" class=""/></g></svg>
