<?xml version="1.0"?>
<svg xmlns="http://www.w3.org/2000/svg" xmlns:xlink="http://www.w3.org/1999/xlink" xmlns:svgjs="http://svgjs.com/svgjs" version="1.1" width="512" height="512" x="0" y="0" viewBox="0 0 468 468" style="enable-background:new 0 0 512 512" xml:space="preserve" class=""><g><g xmlns="http://www.w3.org/2000/svg"><g><path d="m433 110h-77v30h77c2.757 0 5 2.243 5 5v288c0 2.757-2.243 5-5 5h-368c-19.299 0-35-15.701-35-35v-16.968c5.12-11.75 17.296-19.276 31.471-19.276 14.697 0 27.27 8.078 32.029 20.581 5.772 15.16 29.5 11.166 29.5-5.337v-284.198c0-34.077-27.589-61.802-61.515-61.802-33.903 0-61.485 27.725-61.485 61.802v305.198c0 35.841 29.159 65 65 65h368c19.299 0 35-15.701 35-35v-288c0-19.299-15.701-35-35-35zm-403-12.198c0-17.535 14.124-31.802 31.5-31.802 17.369 0 31.5 14.267 31.5 31.802v246.677c-9.342-4.976-20.112-7.723-31.529-7.723-11.393 0-22.144 2.736-31.471 7.691z" fill="#0052da" data-original="#000000" style="" class=""/><path d="m148 110h54v30h-54z" fill="#0052da" data-original="#000000" style="" class=""/><path d="m298.648 415h-37.542c-6.897 0-12.906-4.704-14.562-11.4l-4.549-18.403c-2.103-.802-4.202-1.68-6.295-2.632l-16.402 9.802c-5.861 3.504-13.354 2.605-18.219-2.188l-26.521-26.116c-4.991-4.915-5.916-12.63-2.229-18.585l9.928-16.029c-.854-1.907-1.657-3.854-2.407-5.838l-18.385-4.456c-6.729-1.631-11.467-7.655-11.467-14.578v-36.935c0-6.924 4.739-12.949 11.47-14.578l18.447-4.468c.747-2 1.539-3.938 2.379-5.823l-9.853-15.96c-3.678-5.958-2.745-13.668 2.248-18.576l26.545-26.097 21.031 21.393-18.01 17.706 7.964 12.899c2.879 4.664 2.985 10.527.276 15.293-2.639 4.643-4.785 9.868-6.562 15.975-1.502 5.161-5.649 9.124-10.873 10.389l-15.06 3.646v13.335l14.989 3.633c5.237 1.27 9.392 5.251 10.882 10.431 1.665 5.787 3.892 11.171 6.619 16.003 2.689 4.766 2.57 10.617-.311 15.27l-8.037 12.978 9.723 9.575 13.505-8.071c4.576-2.734 10.257-2.834 14.926-.267 5.464 3.007 10.964 5.3 16.347 6.815 5.193 1.463 9.201 5.602 10.495 10.839l3.713 15.018h14.057l3.698-14.946c1.299-5.252 5.325-9.396 10.537-10.848 5.533-1.541 11.041-3.799 16.373-6.712 4.656-2.544 10.313-2.438 14.873.278l13.591 8.102 9.77-9.617-7.974-12.925c-2.877-4.663-2.981-10.524-.273-15.288 2.636-4.637 4.782-9.865 6.562-15.982 1.501-5.159 5.646-9.122 10.868-10.388l15.067-3.654v-13.339l-14.99-3.634c-5.238-1.27-9.393-5.252-10.883-10.432-1.664-5.786-3.89-11.17-6.616-16-2.69-4.766-2.571-10.618.31-15.271l8.037-12.978-17.987-17.714 21.051-21.375 26.521 26.117c4.99 4.915 5.915 12.63 2.228 18.585l-9.928 16.029c.854 1.906 1.657 3.854 2.406 5.838l18.386 4.456c6.729 1.631 11.467 7.655 11.467 14.578v36.935c0 6.923-4.737 12.946-11.465 14.577l-18.45 4.475c-.749 2.005-1.542 3.947-2.383 5.836l9.857 15.979c3.673 5.954 2.742 13.656-2.244 18.564l-26.545 26.131c-4.861 4.788-12.343 5.688-18.203 2.195l-16.524-9.851c-2.087.937-4.192 1.802-6.311 2.596l-4.523 18.283c-1.658 6.697-7.666 11.4-14.563 11.4z" fill="#0052da" data-original="#000000" style="" class=""/></g><g><path d="m301 109h30v28h-30z" fill="#0052da" data-original="#000000" style="" class=""/><path d="m316 88c8.284 0 15-6.716 15-15v-38.229c0-19.172-15.784-34.771-35.186-34.771h-31.629c-19.401 0-35.185 15.599-35.185 34.771v229.915c0 3.146.989 6.212 2.827 8.765l36 50.001c5.887 8.177 18.459 8.177 24.346 0l36-50.001c1.838-2.553 2.827-5.619 2.827-8.765v-108.686h-30v103.849l-21 29.167-21-29.167v-171.849zm-57-53.229c0-2.631 2.326-4.771 5.186-4.771h31.629c2.859 0 5.186 2.141 5.186 4.771v23.229h-42v-23.229z" fill="#0052da" data-original="#000000" style="" class=""/><path d="" fill="#0052da" data-original="#000000" style="" class=""/></g></g></g></svg>
